<svg width="38" height="88" viewBox="0 0 38 88" fill="none" xmlns="http://www.w3.org/2000/svg">
<path d="M20 0H18V2H20V0Z" fill="black"/>
<path d="M18 2H16V4H18V2Z" fill="black"/>
<path d="M14 8H12V10H14V8Z" fill="black"/>
<path d="M18 8H16V10H18V8Z" fill="black"/>
<path d="M26 8H24V10H26V8Z" fill="black"/>
<path d="M22 2H20V4H22V2Z" fill="black"/>
<path d="M24 4H22V6H24V4Z" fill="black"/>
<path d="M24 6H22V8H24V6Z" fill="black"/>
<path d="M28 10H26V12H28V10Z" fill="black"/>
<path d="M28 12H26V14H28V12Z" fill="black"/>
<path d="M12 10H10V12H12V10Z" fill="black"/>
<path d="M12 12H10V14H12V12Z" fill="black"/>
<path d="M10 14H8V16H10V14Z" fill="black"/>
<path d="M10 16H8V18H10V16Z" fill="black"/>
<path d="M10 18H8V20H10V18Z" fill="black"/>
<path d="M30 14H28V16H30V14Z" fill="black"/>
<path d="M30 16H28V18H30V16Z" fill="black"/>
<path d="M30 18H28V20H30V18Z" fill="black"/>
<path d="M32 20H30V22H32V20Z" fill="black"/>
<path d="M32 22H30V24H32V22Z" fill="black"/>
<path d="M32 24H30V26H32V24Z" fill="black"/>
<path d="M32 26H30V28H32V26Z" fill="black"/>
<path d="M8 20H6V22H8V20Z" fill="black"/>
<path d="M8 22H6V24H8V22Z" fill="black"/>
<path d="M8 24H6V26H8V24Z" fill="black"/>
<path d="M8 26H6V28H8V26Z" fill="black"/>
<path d="M8 44H6V46H8V44Z" fill="black"/>
<path d="M6 46H4V48H6V46Z" fill="black"/>
<path d="M4 48H2V50H4V48Z" fill="black"/>
<path d="M2 50H0V52H2V50Z" fill="black"/>
<path d="M4 58H2V60H4V58Z" fill="black"/>
<path d="M4 60H2V62H4V60Z" fill="black"/>
<path d="M6 62H4V64H6V62Z" fill="black"/>
<path d="M8 62H6V64H8V62Z" fill="black"/>
<path d="M10 60H8V62H10V60Z" fill="black"/>
<path d="M12 60H10V62H12V60Z" fill="black"/>
<path d="M14 58H12V60H14V58Z" fill="black"/>
<path d="M14 60H12V62H14V60Z" fill="black"/>
<path d="M16 60H14V62H16V60Z" fill="black"/>
<path d="M14 62H12V66H14V62Z" fill="black"/>
<path d="M34 58H36V60H34V58Z" fill="black"/>
<path d="M34 60H36V62H34V60Z" fill="black"/>
<path d="M32 62H34V64H32V62Z" fill="black"/>
<path d="M30 62H32V64H30V62Z" fill="black"/>
<path d="M28 60H30V62H28V60Z" fill="black"/>
<path d="M26 60H28V62H26V60Z" fill="black"/>
<path d="M24 60H26V62H24V60Z" fill="black"/>
<path d="M24 62H26V66H24V62Z" fill="black"/>
<path d="M22 60H24V62H22V60Z" fill="black"/>
<path d="M28 52H30V54H28V52Z" fill="black"/>
<path d="M28 54H30V56H28V54Z" fill="black"/>
<path d="M26 56H28V58H26V56Z" fill="black"/>
<path d="M24 58H26V60H24V58Z" fill="black"/>
<path d="M10 52H8V54H10V52Z" fill="black"/>
<path d="M10 54H8V56H10V54Z" fill="black"/>
<path d="M12 56H10V58H12V56Z" fill="black"/>
<path d="M24 66H14V68H24V66Z" fill="black"/>
<path d="M20 46H18V48H20V46Z" fill="black"/>
<path d="M18 60H16V62H18V60Z" fill="black"/>
<path d="M18 48H16V60H18V48Z" fill="black"/>
<path d="M22 48H20V60H22V48Z" fill="black"/>
<path d="M22 60H20V62H22V60Z" fill="black"/>
<path d="M20 62H18V64H20V62Z" fill="black"/>
<path d="M18 68H16V70H18V68Z" fill="black"/>
<path d="M14 68H12V70H14V68Z" fill="black"/>
<path d="M12 70H10V72H12V70Z" fill="black"/>
<path d="M10 72H8V74H10V72Z" fill="black"/>
<path d="M12 74H10V76H12V74Z" fill="black"/>
<path d="M12 76H10V78H12V76Z" fill="black"/>
<path d="M10 78H8V80H10V78Z" fill="black"/>
<path d="M10 80H8V82H10V80Z" fill="black"/>
<path d="M12 82H10V84H12V82Z" fill="black"/>
<path d="M20 68H18V70H20V68Z" fill="#FF7A00"/>
<path d="M20 68H18V70H20V68Z" fill="#FF7A00"/>
<path d="M18 4H16V8H18V4Z" fill="#FF0000"/>
<path d="M18 4H16V8H18V4Z" fill="#FF0000"/>
<path d="M18 4H16V8H18V4Z" fill="#FF0000"/>
<path d="M20 2H18V4H20V2Z" fill="#FF0000"/>
<path d="M20 2H18V4H20V2Z" fill="#FF0000"/>
<path d="M20 2H18V4H20V2Z" fill="#FF0000"/>
<path d="M10 36H6V40H10V36Z" fill="#FF0000"/>
<path d="M10 36H6V40H10V36Z" fill="#FF0000"/>
<path d="M10 36H6V40H10V36Z" fill="#FF0000"/>
<path d="M32 36H28V40H32V36Z" fill="#FF0000"/>
<path d="M32 36H28V40H32V36Z" fill="#FF0000"/>
<path d="M32 36H28V40H32V36Z" fill="#FF0000"/>
<path d="M34 48H32V50H34V48Z" fill="#FF0000"/>
<path d="M34 48H32V50H34V48Z" fill="#FF0000"/>
<path d="M34 48H32V50H34V48Z" fill="#FF0000"/>
<path d="M34 50H32V52H34V50Z" fill="#FF0000"/>
<path d="M34 50H32V52H34V50Z" fill="#FF0000"/>
<path d="M34 50H32V52H34V50Z" fill="#FF0000"/>
<path d="M36 50H34V52H36V50Z" fill="#FF0000"/>
<path d="M36 50H34V52H36V50Z" fill="#FF0000"/>
<path d="M36 50H34V52H36V50Z" fill="#FF0000"/>
<path d="M4 48H6V50H4V48Z" fill="#FF0000"/>
<path d="M4 48H6V50H4V48Z" fill="#FF0000"/>
<path d="M4 48H6V50H4V48Z" fill="#FF0000"/>
<path d="M4 50H6V52H4V50Z" fill="#FF0000"/>
<path d="M4 50H6V52H4V50Z" fill="#FF0000"/>
<path d="M4 50H6V52H4V50Z" fill="#FF0000"/>
<path d="M2 50H4V52H2V50Z" fill="#FF0000"/>
<path d="M2 50H4V52H2V50Z" fill="#FF0000"/>
<path d="M2 50H4V52H2V50Z" fill="#FF0000"/>
<path d="M22 4H18V8H22V4Z" fill="#8C0000"/>
<path d="M10 40H8V42H10V40Z" fill="#8C0000"/>
<path d="M8 52H2V58H8V52Z" fill="#8C0000"/>
<path d="M6 58H4V60H6V58Z" fill="#8C0000"/>
<path d="M6 60H4V62H6V60Z" fill="#8C0000"/>
<path d="M8 60H6V62H8V60Z" fill="#8C0000"/>
<path d="M8 58H6V60H8V58Z" fill="#8C0000"/>
<path d="M12 58H10V60H12V58Z" fill="#8C0000"/>
<path d="M10 58H8V60H10V58Z" fill="#8C0000"/>
<path d="M10 56H8V58H10V56Z" fill="#8C0000"/>
<path d="M30 52H37V58H30V52Z" fill="#8C0000"/>
<path d="M32 58H35V60H32V58Z" fill="#8C0000"/>
<path d="M32 60H35V62H32V60Z" fill="#8C0000"/>
<path d="M30 60H33V62H30V60Z" fill="#8C0000"/>
<path d="M30 58H33V60H30V58Z" fill="#8C0000"/>
<path d="M26 58H28V60H26V58Z" fill="#8C0000"/>
<path d="M28 58H30V60H28V58Z" fill="#8C0000"/>
<path d="M28 56H30V58H28V56Z" fill="#8C0000"/>
<path d="M20 48H18V62H20V48Z" fill="#8C0000"/>
<path d="M30 40H28V42H30V40Z" fill="#8C0000"/>
<path d="M28 38H10V42H28V38Z" fill="#8C0000"/>
<path d="M20 76H18V78H20V76Z" fill="#FF7A00"/>
<path d="M16 68H14V70H16V68Z" fill="#FFD600"/>
<path d="M12 72H10V74H12V72Z" fill="#FFD600"/>
<path d="M24 68H22V70H24V68Z" fill="#FFD600"/>
<path d="M26 78H24V80H26V78Z" fill="#FFD600"/>
<path d="M22 82H20V84H22V82Z" fill="#FFD600"/>
<path d="M16 84H14V86H16V84Z" fill="#FFD600"/>
<path d="M20 72H18V76H20V72Z" fill="#FFD600"/>
<path d="M20 78H18V82H20V78Z" fill="#FFD600"/>
<path d="M26 70H24V74H26V70Z" fill="#FFD600"/>
<path d="M24 70H20V74H24V70Z" fill="#FFD600"/>
<path d="M24 74H20V82H24V74Z" fill="#FFD600"/>
<path d="M12 78H10V82H12V78Z" fill="#FFD600"/>
<path d="M18 70H12V84H18V70Z" fill="#FFD600"/>
<path d="M14 84H12V86H14V84Z" fill="black"/>
<path d="M16 86H14V88H16V86Z" fill="black"/>
<path d="M18 84H16V86H18V84Z" fill="black"/>
<path d="M20 82H18V84H20V82Z" fill="black"/>
<path d="M22 84H20V86H22V84Z" fill="black"/>
<path d="M24 82H22V84H24V82Z" fill="black"/>
<path d="M26 80H24V82H26V80Z" fill="black"/>
<path d="M28 78H26V80H28V78Z" fill="black"/>
<path d="M26 76H24V78H26V76Z" fill="black"/>
<path d="M26 74H24V76H26V74Z" fill="black"/>
<path d="M28 72H26V74H28V72Z" fill="black"/>
<path d="M28 70H26V72H28V70Z" fill="black"/>
<path d="M26 68H24V70H26V68Z" fill="black"/>
<path d="M20 70H18V72H20V70Z" fill="black"/>
<path d="M22 68H20V70H22V68Z" fill="black"/>
<path d="M2 52H0V58H2V52Z" fill="black"/>
<path d="M38 52H36V58H38V52Z" fill="black"/>
<path d="M32 46H34V48H32V46Z" fill="black"/>
<path d="M34 48H36V50H34V48Z" fill="black"/>
<path d="M36 50H38V52H36V50Z" fill="black"/>
<path d="M32 44H30V46H32V44Z" fill="black"/>
<path d="M32 46H30V52H32V46Z" fill="black"/>
<path d="M8 46H6V52H8V46Z" fill="black"/>
<path d="M8 34H6V36H8V34Z" fill="black"/>
<path d="M10 34H8V36H10V34Z" fill="black"/>
<path d="M8 40H6V42H8V40Z" fill="black"/>
<path d="M32 40H30V42H32V40Z" fill="black"/>
<path d="M30 42H8V44H30V42Z" fill="black"/>
<path d="M32 34H30V36H32V34Z" fill="black"/>
<path d="M30 34H28V36H30V34Z" fill="black"/>
<path d="M12 36H10V38H12V36Z" fill="black"/>
<path d="M28 36H12V38H28V36Z" fill="black"/>
<path d="M6 28H4V38H6V28Z" fill="black"/>
<path d="M6 30H4V40H6V30Z" fill="black"/>
<path d="M6 32H4V42H6V32Z" fill="black"/>
<path d="M6 34H4V44H6V34Z" fill="black"/>
<path d="M34 28H32V38H34V28Z" fill="black"/>
<path d="M34 30H32V40H34V30Z" fill="black"/>
<path d="M34 32H32V42H34V32Z" fill="black"/>
<path d="M34 34H32V44H34V34Z" fill="black"/>
<path d="M16 4H14V8H16V4Z" fill="black"/>
<path d="M20 8H18V10H20V8Z" fill="black"/>
<path d="M22 8H20V10H22V8Z" fill="black"/>
<path d="M18 74H16V76H18V74Z" fill="#FF7A00"/>
<path d="M16 72H14V74H16V72Z" fill="#FF7A00"/>
<path d="M22 74H20V76H22V74Z" fill="#FF7A00"/>
<path d="M24 72H22V74H24V72Z" fill="#FF7A00"/>
<rect x="14" y="8" width="2" height="2" fill="#C1C1C1"/>
<rect x="14" y="8" width="2" height="2" fill="#C1C1C1"/>
<rect x="14" y="8" width="2" height="2" fill="#C1C1C1"/>
<rect x="8" y="20" width="22" height="8" fill="#C1C1C1"/>
<rect x="8" y="20" width="22" height="8" fill="#C1C1C1"/>
<rect x="8" y="20" width="22" height="8" fill="#C1C1C1"/>
<rect x="14" y="8" width="2" height="2" fill="#C1C1C1"/>
<rect x="14" y="8" width="2" height="2" fill="#C1C1C1"/>
<rect x="14" y="8" width="2" height="2" fill="#C1C1C1"/>
<rect x="8" y="44" width="20" height="2" fill="#C1C1C1"/>
<rect x="8" y="44" width="20" height="2" fill="#C1C1C1"/>
<rect x="8" y="44" width="20" height="2" fill="#C1C1C1"/>
<rect width="10" height="2" transform="matrix(-1 0 0 1 30 46)" fill="#C1C1C1"/>
<rect width="10" height="2" transform="matrix(-1 0 0 1 30 46)" fill="#C1C1C1"/>
<rect width="10" height="2" transform="matrix(-1 0 0 1 30 46)" fill="#C1C1C1"/>
<rect width="8" height="2" transform="matrix(-1 0 0 1 30 48)" fill="#C1C1C1"/>
<rect width="8" height="2" transform="matrix(-1 0 0 1 30 48)" fill="#C1C1C1"/>
<rect width="8" height="2" transform="matrix(-1 0 0 1 30 48)" fill="#C1C1C1"/>
<rect width="8" height="2" transform="matrix(-1 0 0 1 30 50)" fill="#C1C1C1"/>
<rect width="8" height="2" transform="matrix(-1 0 0 1 30 50)" fill="#C1C1C1"/>
<rect width="8" height="2" transform="matrix(-1 0 0 1 30 50)" fill="#C1C1C1"/>
<rect width="6" height="2" transform="matrix(-1 0 0 1 28 52)" fill="#C1C1C1"/>
<rect width="6" height="2" transform="matrix(-1 0 0 1 28 52)" fill="#C1C1C1"/>
<rect width="6" height="2" transform="matrix(-1 0 0 1 28 52)" fill="#C1C1C1"/>
<rect width="6" height="2" transform="matrix(-1 0 0 1 28 54)" fill="#C1C1C1"/>
<rect width="6" height="2" transform="matrix(-1 0 0 1 28 54)" fill="#C1C1C1"/>
<rect width="6" height="2" transform="matrix(-1 0 0 1 28 54)" fill="#C1C1C1"/>
<rect width="4" height="2" transform="matrix(-1 0 0 1 26 56)" fill="#C1C1C1"/>
<rect width="4" height="2" transform="matrix(-1 0 0 1 26 56)" fill="#C1C1C1"/>
<rect width="4" height="2" transform="matrix(-1 0 0 1 26 56)" fill="#C1C1C1"/>
<rect width="2" height="2" transform="matrix(-1 0 0 1 32 42)" fill="#C1C1C1"/>
<rect width="2" height="2" transform="matrix(-1 0 0 1 32 42)" fill="#C1C1C1"/>
<rect width="2" height="2" transform="matrix(-1 0 0 1 32 42)" fill="#C1C1C1"/>
<rect width="2" height="2" transform="matrix(-1 0 0 1 8 42)" fill="#C1C1C1"/>
<rect width="2" height="2" transform="matrix(-1 0 0 1 8 42)" fill="#C1C1C1"/>
<rect width="2" height="2" transform="matrix(-1 0 0 1 8 42)" fill="#C1C1C1"/>
<rect x="8" y="46" width="10" height="2" fill="#C1C1C1"/>
<rect x="8" y="46" width="10" height="2" fill="#C1C1C1"/>
<rect x="8" y="46" width="10" height="2" fill="#C1C1C1"/>
<rect x="8" y="48" width="8" height="2" fill="#C1C1C1"/>
<rect x="8" y="48" width="8" height="2" fill="#C1C1C1"/>
<rect x="8" y="48" width="8" height="2" fill="#C1C1C1"/>
<rect x="8" y="50" width="8" height="2" fill="#C1C1C1"/>
<rect x="8" y="50" width="8" height="2" fill="#C1C1C1"/>
<rect x="8" y="50" width="8" height="2" fill="#C1C1C1"/>
<rect x="10" y="52" width="6" height="2" fill="#C1C1C1"/>
<rect x="10" y="52" width="6" height="2" fill="#C1C1C1"/>
<rect x="10" y="52" width="6" height="2" fill="#C1C1C1"/>
<rect x="10" y="54" width="6" height="2" fill="#C1C1C1"/>
<rect x="10" y="54" width="6" height="2" fill="#C1C1C1"/>
<rect x="10" y="54" width="6" height="2" fill="#C1C1C1"/>
<rect x="12" y="56" width="4" height="2" fill="#C1C1C1"/>
<rect x="12" y="56" width="4" height="2" fill="#C1C1C1"/>
<rect x="12" y="56" width="4" height="2" fill="#C1C1C1"/>
<rect x="14" y="62" width="4" height="2" fill="#C1C1C1"/>
<rect x="14" y="62" width="4" height="2" fill="#C1C1C1"/>
<rect x="14" y="62" width="4" height="2" fill="#C1C1C1"/>
<rect x="20" y="62" width="4" height="2" fill="#C1C1C1"/>
<rect x="20" y="62" width="4" height="2" fill="#C1C1C1"/>
<rect x="20" y="62" width="4" height="2" fill="#C1C1C1"/>
<rect x="10" y="34" width="18" height="2" fill="#C1C1C1"/>
<rect x="10" y="34" width="18" height="2" fill="#C1C1C1"/>
<rect x="10" y="34" width="18" height="2" fill="#C1C1C1"/>
<rect x="6" y="28" width="26" height="6" fill="#C1C1C1"/>
<rect x="6" y="28" width="26" height="6" fill="#C1C1C1"/>
<rect x="6" y="28" width="26" height="6" fill="#C1C1C1"/>
<rect x="10" y="14" width="18" height="6" fill="#C1C1C1"/>
<rect x="10" y="14" width="18" height="6" fill="#C1C1C1"/>
<rect x="10" y="14" width="18" height="6" fill="#C1C1C1"/>
<rect x="12" y="10" width="14" height="4" fill="#C1C1C1"/>
<rect x="12" y="10" width="14" height="4" fill="#C1C1C1"/>
<rect x="12" y="10" width="14" height="4" fill="#C1C1C1"/>
<rect x="22" y="8" width="2" height="2" fill="#C1C1C1"/>
<rect x="22" y="8" width="2" height="2" fill="#C1C1C1"/>
<rect x="22" y="8" width="2" height="2" fill="#878787"/>
<rect x="22" y="8" width="2" height="2" fill="#878787"/>
<rect x="22" y="8" width="2" height="2" fill="#878787"/>
<rect x="22" y="8" width="2" height="2" fill="#878787"/>
<rect x="16" y="30" width="2" height="2" fill="#C1C1C1"/>
<rect x="16" y="30" width="2" height="2" fill="#C1C1C1"/>
<rect x="16" y="30" width="2" height="2" fill="#878787"/>
<rect x="16" y="30" width="2" height="2" fill="#878787"/>
<rect x="16" y="30" width="2" height="2" fill="#878787"/>
<rect x="16" y="30" width="2" height="2" fill="black"/>
<rect x="14" y="28" width="2" height="2" fill="#C1C1C1"/>
<rect x="14" y="28" width="2" height="2" fill="#C1C1C1"/>
<rect x="14" y="28" width="2" height="2" fill="#878787"/>
<rect x="14" y="28" width="2" height="2" fill="#878787"/>
<rect x="14" y="28" width="2" height="2" fill="#878787"/>
<rect x="14" y="28" width="2" height="2" fill="black"/>
<rect x="12" y="26" width="2" height="2" fill="#C1C1C1"/>
<rect x="12" y="26" width="2" height="2" fill="#C1C1C1"/>
<rect x="12" y="26" width="2" height="2" fill="#878787"/>
<rect x="12" y="26" width="2" height="2" fill="#878787"/>
<rect x="12" y="26" width="2" height="2" fill="#878787"/>
<rect x="12" y="26" width="2" height="2" fill="black"/>
<rect x="12" y="24" width="2" height="2" fill="#C1C1C1"/>
<rect x="12" y="24" width="2" height="2" fill="#C1C1C1"/>
<rect x="12" y="24" width="2" height="2" fill="#878787"/>
<rect x="12" y="24" width="2" height="2" fill="#878787"/>
<rect x="12" y="24" width="2" height="2" fill="#878787"/>
<rect x="12" y="24" width="2" height="2" fill="black"/>
<rect x="12" y="22" width="2" height="2" fill="#C1C1C1"/>
<rect x="12" y="22" width="2" height="2" fill="#C1C1C1"/>
<rect x="12" y="22" width="2" height="2" fill="#878787"/>
<rect x="12" y="22" width="2" height="2" fill="#878787"/>
<rect x="12" y="22" width="2" height="2" fill="#878787"/>
<rect x="12" y="22" width="2" height="2" fill="black"/>
<rect x="12" y="20" width="2" height="2" fill="#C1C1C1"/>
<rect x="12" y="20" width="2" height="2" fill="#C1C1C1"/>
<rect x="12" y="20" width="2" height="2" fill="#878787"/>
<rect x="12" y="20" width="2" height="2" fill="#878787"/>
<rect x="12" y="20" width="2" height="2" fill="#878787"/>
<rect x="12" y="20" width="2" height="2" fill="black"/>
<rect x="14" y="18" width="2" height="2" fill="#C1C1C1"/>
<rect x="14" y="18" width="2" height="2" fill="#C1C1C1"/>
<rect x="14" y="18" width="2" height="2" fill="#878787"/>
<rect x="14" y="18" width="2" height="2" fill="#878787"/>
<rect x="14" y="18" width="2" height="2" fill="#878787"/>
<rect x="14" y="18" width="2" height="2" fill="black"/>
<rect x="16" y="16" width="2" height="2" fill="#C1C1C1"/>
<rect x="16" y="16" width="2" height="2" fill="#C1C1C1"/>
<rect x="16" y="16" width="2" height="2" fill="#878787"/>
<rect x="16" y="16" width="2" height="2" fill="#878787"/>
<rect x="16" y="16" width="2" height="2" fill="#878787"/>
<rect x="16" y="16" width="2" height="2" fill="black"/>
<rect x="18" y="16" width="2" height="2" fill="#C1C1C1"/>
<rect x="18" y="16" width="2" height="2" fill="#C1C1C1"/>
<rect x="18" y="16" width="2" height="2" fill="#878787"/>
<rect x="18" y="16" width="2" height="2" fill="#878787"/>
<rect x="18" y="16" width="2" height="2" fill="#878787"/>
<rect x="18" y="16" width="2" height="2" fill="black"/>
<rect x="20" y="16" width="2" height="2" fill="#C1C1C1"/>
<rect x="20" y="16" width="2" height="2" fill="#C1C1C1"/>
<rect x="20" y="16" width="2" height="2" fill="#878787"/>
<rect x="20" y="16" width="2" height="2" fill="#878787"/>
<rect x="20" y="16" width="2" height="2" fill="#878787"/>
<rect x="20" y="16" width="2" height="2" fill="black"/>
<rect x="22" y="18" width="2" height="2" fill="#C1C1C1"/>
<rect x="22" y="18" width="2" height="2" fill="#C1C1C1"/>
<rect x="22" y="18" width="2" height="2" fill="#878787"/>
<rect x="22" y="18" width="2" height="2" fill="#878787"/>
<rect x="22" y="18" width="2" height="2" fill="#878787"/>
<rect x="22" y="18" width="2" height="2" fill="black"/>
<rect x="24" y="20" width="2" height="2" fill="#C1C1C1"/>
<rect x="24" y="20" width="2" height="2" fill="#C1C1C1"/>
<rect x="24" y="20" width="2" height="2" fill="#878787"/>
<rect x="24" y="20" width="2" height="2" fill="#878787"/>
<rect x="24" y="20" width="2" height="2" fill="#878787"/>
<rect x="24" y="20" width="2" height="2" fill="black"/>
<rect x="24" y="22" width="2" height="2" fill="#C1C1C1"/>
<rect x="24" y="22" width="2" height="2" fill="#C1C1C1"/>
<rect x="24" y="22" width="2" height="2" fill="#878787"/>
<rect x="24" y="22" width="2" height="2" fill="#878787"/>
<rect x="24" y="22" width="2" height="2" fill="#878787"/>
<rect x="24" y="22" width="2" height="2" fill="black"/>
<rect x="24" y="24" width="2" height="2" fill="#C1C1C1"/>
<rect x="24" y="24" width="2" height="2" fill="#C1C1C1"/>
<rect x="24" y="24" width="2" height="2" fill="#878787"/>
<rect x="24" y="24" width="2" height="2" fill="#878787"/>
<rect x="24" y="24" width="2" height="2" fill="#878787"/>
<rect x="24" y="24" width="2" height="2" fill="black"/>
<rect x="24" y="26" width="2" height="2" fill="#C1C1C1"/>
<rect x="24" y="26" width="2" height="2" fill="#C1C1C1"/>
<rect x="24" y="26" width="2" height="2" fill="#878787"/>
<rect x="24" y="26" width="2" height="2" fill="#878787"/>
<rect x="24" y="26" width="2" height="2" fill="#878787"/>
<rect x="24" y="26" width="2" height="2" fill="black"/>
<rect x="22" y="28" width="2" height="2" fill="#C1C1C1"/>
<rect x="22" y="28" width="2" height="2" fill="#C1C1C1"/>
<rect x="22" y="28" width="2" height="2" fill="#878787"/>
<rect x="22" y="28" width="2" height="2" fill="#878787"/>
<rect x="22" y="28" width="2" height="2" fill="#878787"/>
<rect x="22" y="28" width="2" height="2" fill="black"/>
<rect x="20" y="28" width="2" height="2" fill="#C1C1C1"/>
<rect x="20" y="28" width="2" height="2" fill="#C1C1C1"/>
<rect x="20" y="28" width="2" height="2" fill="#878787"/>
<rect x="20" y="28" width="2" height="2" fill="#878787"/>
<rect x="20" y="28" width="2" height="2" fill="#878787"/>
<rect x="20" y="28" width="2" height="2" fill="#72E4F2"/>
<rect x="22" y="26" width="2" height="2" fill="#C1C1C1"/>
<rect x="22" y="26" width="2" height="2" fill="#C1C1C1"/>
<rect x="22" y="26" width="2" height="2" fill="#878787"/>
<rect x="22" y="26" width="2" height="2" fill="#878787"/>
<rect x="22" y="26" width="2" height="2" fill="#878787"/>
<rect x="22" y="26" width="2" height="2" fill="#72E4F2"/>
<rect x="22" y="24" width="2" height="2" fill="#C1C1C1"/>
<rect x="22" y="24" width="2" height="2" fill="#C1C1C1"/>
<rect x="22" y="24" width="2" height="2" fill="#878787"/>
<rect x="22" y="24" width="2" height="2" fill="#878787"/>
<rect x="22" y="24" width="2" height="2" fill="#878787"/>
<rect x="22" y="24" width="2" height="2" fill="#72E4F2"/>
<rect x="22" y="22" width="2" height="2" fill="#C1C1C1"/>
<rect x="22" y="22" width="2" height="2" fill="#C1C1C1"/>
<rect x="22" y="22" width="2" height="2" fill="#878787"/>
<rect x="22" y="22" width="2" height="2" fill="#878787"/>
<rect x="22" y="22" width="2" height="2" fill="#878787"/>
<rect x="22" y="22" width="2" height="2" fill="#72E4F2"/>
<rect x="22" y="20" width="2" height="2" fill="#C1C1C1"/>
<rect x="22" y="20" width="2" height="2" fill="#C1C1C1"/>
<rect x="22" y="20" width="2" height="2" fill="#878787"/>
<rect x="22" y="20" width="2" height="2" fill="#878787"/>
<rect x="22" y="20" width="2" height="2" fill="#878787"/>
<rect x="22" y="20" width="2" height="2" fill="#72E4F2"/>
<rect x="18" y="28" width="2" height="2" fill="#C1C1C1"/>
<rect x="18" y="28" width="2" height="2" fill="#C1C1C1"/>
<rect x="18" y="28" width="2" height="2" fill="#878787"/>
<rect x="18" y="28" width="2" height="2" fill="#878787"/>
<rect x="18" y="28" width="2" height="2" fill="#878787"/>
<rect x="18" y="28" width="2" height="2" fill="#72E4F2"/>
<rect x="18" y="26" width="2" height="2" fill="#C1C1C1"/>
<rect x="18" y="26" width="2" height="2" fill="#C1C1C1"/>
<rect x="18" y="26" width="2" height="2" fill="#878787"/>
<rect x="18" y="26" width="2" height="2" fill="#878787"/>
<rect x="18" y="26" width="2" height="2" fill="#878787"/>
<rect x="18" y="26" width="2" height="2" fill="#A3F8FF"/>
<rect x="16" y="26" width="2" height="2" fill="#C1C1C1"/>
<rect x="16" y="26" width="2" height="2" fill="#C1C1C1"/>
<rect x="16" y="26" width="2" height="2" fill="#878787"/>
<rect x="16" y="26" width="2" height="2" fill="#878787"/>
<rect x="16" y="26" width="2" height="2" fill="#878787"/>
<rect x="16" y="26" width="2" height="2" fill="#A3F8FF"/>
<rect x="14" y="26" width="2" height="2" fill="#C1C1C1"/>
<rect x="14" y="26" width="2" height="2" fill="#C1C1C1"/>
<rect x="14" y="26" width="2" height="2" fill="#878787"/>
<rect x="14" y="26" width="2" height="2" fill="#878787"/>
<rect x="14" y="26" width="2" height="2" fill="#878787"/>
<rect x="14" y="26" width="2" height="2" fill="#A3F8FF"/>
<rect x="14" y="24" width="2" height="2" fill="#C1C1C1"/>
<rect x="14" y="24" width="2" height="2" fill="#C1C1C1"/>
<rect x="14" y="24" width="2" height="2" fill="#878787"/>
<rect x="14" y="24" width="2" height="2" fill="#878787"/>
<rect x="14" y="24" width="2" height="2" fill="#878787"/>
<rect x="14" y="24" width="2" height="2" fill="#A3F8FF"/>
<rect x="16" y="24" width="2" height="2" fill="#C1C1C1"/>
<rect x="16" y="24" width="2" height="2" fill="#C1C1C1"/>
<rect x="16" y="24" width="2" height="2" fill="#878787"/>
<rect x="16" y="24" width="2" height="2" fill="#878787"/>
<rect x="16" y="24" width="2" height="2" fill="#878787"/>
<rect x="16" y="24" width="2" height="2" fill="#A3F8FF"/>
<rect x="18" y="24" width="2" height="2" fill="#C1C1C1"/>
<rect x="18" y="24" width="2" height="2" fill="#C1C1C1"/>
<rect x="18" y="24" width="2" height="2" fill="#878787"/>
<rect x="18" y="24" width="2" height="2" fill="#878787"/>
<rect x="18" y="24" width="2" height="2" fill="#878787"/>
<rect x="18" y="24" width="2" height="2" fill="#A3F8FF"/>
<rect x="20" y="24" width="2" height="2" fill="#C1C1C1"/>
<rect x="20" y="24" width="2" height="2" fill="#C1C1C1"/>
<rect x="20" y="24" width="2" height="2" fill="#878787"/>
<rect x="20" y="24" width="2" height="2" fill="#878787"/>
<rect x="20" y="24" width="2" height="2" fill="#878787"/>
<rect x="20" y="24" width="2" height="2" fill="#A3F8FF"/>
<rect x="20" y="26" width="2" height="2" fill="#C1C1C1"/>
<rect x="20" y="26" width="2" height="2" fill="#C1C1C1"/>
<rect x="20" y="26" width="2" height="2" fill="#878787"/>
<rect x="20" y="26" width="2" height="2" fill="#878787"/>
<rect x="20" y="26" width="2" height="2" fill="#878787"/>
<rect x="20" y="26" width="2" height="2" fill="#A3F8FF"/>
<rect x="20" y="22" width="2" height="2" fill="#C1C1C1"/>
<rect x="20" y="22" width="2" height="2" fill="#C1C1C1"/>
<rect x="20" y="22" width="2" height="2" fill="#878787"/>
<rect x="20" y="22" width="2" height="2" fill="#878787"/>
<rect x="20" y="22" width="2" height="2" fill="#878787"/>
<rect x="20" y="22" width="2" height="2" fill="#A3F8FF"/>
<rect x="20" y="20" width="2" height="2" fill="#C1C1C1"/>
<rect x="20" y="20" width="2" height="2" fill="#C1C1C1"/>
<rect x="20" y="20" width="2" height="2" fill="#878787"/>
<rect x="20" y="20" width="2" height="2" fill="#878787"/>
<rect x="20" y="20" width="2" height="2" fill="#878787"/>
<rect x="20" y="20" width="2" height="2" fill="#A3F8FF"/>
<rect x="20" y="18" width="2" height="2" fill="#C1C1C1"/>
<rect x="20" y="18" width="2" height="2" fill="#C1C1C1"/>
<rect x="20" y="18" width="2" height="2" fill="#878787"/>
<rect x="20" y="18" width="2" height="2" fill="#878787"/>
<rect x="20" y="18" width="2" height="2" fill="#878787"/>
<rect x="20" y="18" width="2" height="2" fill="#A3F8FF"/>
<rect x="18" y="20" width="2" height="2" fill="#C1C1C1"/>
<rect x="18" y="20" width="2" height="2" fill="#C1C1C1"/>
<rect x="18" y="20" width="2" height="2" fill="#878787"/>
<rect x="18" y="20" width="2" height="2" fill="#878787"/>
<rect x="18" y="20" width="2" height="2" fill="#878787"/>
<rect x="18" y="20" width="2" height="2" fill="#A3F8FF"/>
<rect x="18" y="18" width="2" height="2" fill="#C1C1C1"/>
<rect x="18" y="18" width="2" height="2" fill="#C1C1C1"/>
<rect x="18" y="18" width="2" height="2" fill="#878787"/>
<rect x="18" y="18" width="2" height="2" fill="#878787"/>
<rect x="18" y="18" width="2" height="2" fill="#878787"/>
<rect x="18" y="18" width="2" height="2" fill="#CFFBFF"/>
<rect x="16" y="18" width="2" height="2" fill="#C1C1C1"/>
<rect x="16" y="18" width="2" height="2" fill="#C1C1C1"/>
<rect x="16" y="18" width="2" height="2" fill="#878787"/>
<rect x="16" y="18" width="2" height="2" fill="#878787"/>
<rect x="16" y="18" width="2" height="2" fill="#878787"/>
<rect x="16" y="18" width="2" height="2" fill="#CFFBFF"/>
<rect x="14" y="20" width="2" height="2" fill="#C1C1C1"/>
<rect x="14" y="20" width="2" height="2" fill="#C1C1C1"/>
<rect x="14" y="20" width="2" height="2" fill="#878787"/>
<rect x="14" y="20" width="2" height="2" fill="#878787"/>
<rect x="14" y="20" width="2" height="2" fill="#878787"/>
<rect x="14" y="20" width="2" height="2" fill="#CFFBFF"/>
<rect x="14" y="22" width="2" height="2" fill="#C1C1C1"/>
<rect x="14" y="22" width="2" height="2" fill="#C1C1C1"/>
<rect x="14" y="22" width="2" height="2" fill="#878787"/>
<rect x="14" y="22" width="2" height="2" fill="#878787"/>
<rect x="14" y="22" width="2" height="2" fill="#878787"/>
<rect x="14" y="22" width="2" height="2" fill="#CFFBFF"/>
<rect x="18" y="22" width="2" height="2" fill="#C1C1C1"/>
<rect x="18" y="22" width="2" height="2" fill="#C1C1C1"/>
<rect x="18" y="22" width="2" height="2" fill="#878787"/>
<rect x="18" y="22" width="2" height="2" fill="#878787"/>
<rect x="18" y="22" width="2" height="2" fill="#878787"/>
<rect x="18" y="22" width="2" height="2" fill="#A3F8FF"/>
<rect x="16" y="22" width="2" height="2" fill="#C1C1C1"/>
<rect x="16" y="22" width="2" height="2" fill="#C1C1C1"/>
<rect x="16" y="22" width="2" height="2" fill="#878787"/>
<rect x="16" y="22" width="2" height="2" fill="#878787"/>
<rect x="16" y="22" width="2" height="2" fill="#878787"/>
<rect x="16" y="22" width="2" height="2" fill="#A3F8FF"/>
<rect x="16" y="20" width="2" height="2" fill="#C1C1C1"/>
<rect x="16" y="20" width="2" height="2" fill="#C1C1C1"/>
<rect x="16" y="20" width="2" height="2" fill="#878787"/>
<rect x="16" y="20" width="2" height="2" fill="#878787"/>
<rect x="16" y="20" width="2" height="2" fill="#878787"/>
<rect x="16" y="20" width="2" height="2" fill="#A3F8FF"/>
<rect x="16" y="28" width="2" height="2" fill="#C1C1C1"/>
<rect x="16" y="28" width="2" height="2" fill="#C1C1C1"/>
<rect x="16" y="28" width="2" height="2" fill="#878787"/>
<rect x="16" y="28" width="2" height="2" fill="#878787"/>
<rect x="16" y="28" width="2" height="2" fill="#878787"/>
<rect x="16" y="28" width="2" height="2" fill="#72E4F2"/>
<rect x="18" y="30" width="2" height="2" fill="#C1C1C1"/>
<rect x="18" y="30" width="2" height="2" fill="#C1C1C1"/>
<rect x="18" y="30" width="2" height="2" fill="#878787"/>
<rect x="18" y="30" width="2" height="2" fill="#878787"/>
<rect x="18" y="30" width="2" height="2" fill="#878787"/>
<rect x="18" y="30" width="2" height="2" fill="black"/>
<rect x="20" y="30" width="2" height="2" fill="#C1C1C1"/>
<rect x="20" y="30" width="2" height="2" fill="#C1C1C1"/>
<rect x="20" y="30" width="2" height="2" fill="#878787"/>
<rect x="20" y="30" width="2" height="2" fill="#878787"/>
<rect x="20" y="30" width="2" height="2" fill="#878787"/>
<rect x="20" y="30" width="2" height="2" fill="black"/>
<rect x="24" y="10" width="2" height="4" fill="#C1C1C1"/>
<rect x="24" y="10" width="2" height="4" fill="#C1C1C1"/>
<rect x="24" y="10" width="2" height="4" fill="#878787"/>
<rect x="24" y="10" width="2" height="4" fill="#878787"/>
<rect x="24" y="10" width="2" height="4" fill="#878787"/>
<rect x="24" y="10" width="2" height="4" fill="#878787"/>
<rect x="26" y="14" width="2" height="6" fill="#C1C1C1"/>
<rect x="26" y="14" width="2" height="6" fill="#C1C1C1"/>
<rect x="26" y="14" width="2" height="6" fill="#878787"/>
<rect x="26" y="14" width="2" height="6" fill="#878787"/>
<rect x="26" y="14" width="2" height="6" fill="#878787"/>
<rect x="26" y="14" width="2" height="6" fill="#878787"/>
<rect x="28" y="20" width="2" height="8" fill="#C1C1C1"/>
<rect x="28" y="20" width="2" height="8" fill="#C1C1C1"/>
<rect x="28" y="20" width="2" height="8" fill="#878787"/>
<rect x="28" y="20" width="2" height="8" fill="#878787"/>
<rect x="28" y="20" width="2" height="8" fill="#878787"/>
<rect x="28" y="20" width="2" height="8" fill="#878787"/>
<rect x="30" y="28" width="2" height="6" fill="#C1C1C1"/>
<rect x="30" y="28" width="2" height="6" fill="#C1C1C1"/>
<rect x="30" y="28" width="2" height="6" fill="#878787"/>
<rect x="30" y="28" width="2" height="6" fill="#878787"/>
<rect x="30" y="28" width="2" height="6" fill="#878787"/>
<rect x="30" y="28" width="2" height="6" fill="#878787"/>
<rect x="28" y="44" width="2" height="8" fill="#C1C1C1"/>
<rect x="28" y="44" width="2" height="8" fill="#C1C1C1"/>
<rect x="28" y="44" width="2" height="8" fill="#878787"/>
<rect x="28" y="44" width="2" height="8" fill="#878787"/>
<rect x="28" y="44" width="2" height="8" fill="#878787"/>
<rect x="28" y="44" width="2" height="8" fill="#878787"/>
<rect x="26" y="52" width="2" height="4" fill="#C1C1C1"/>
<rect x="26" y="52" width="2" height="4" fill="#C1C1C1"/>
<rect x="26" y="52" width="2" height="4" fill="#878787"/>
<rect x="26" y="52" width="2" height="4" fill="#878787"/>
<rect x="26" y="52" width="2" height="4" fill="#878787"/>
<rect x="26" y="52" width="2" height="4" fill="#878787"/>
<rect x="24" y="56" width="2" height="2" fill="#C1C1C1"/>
<rect x="24" y="56" width="2" height="2" fill="#C1C1C1"/>
<rect x="24" y="56" width="2" height="2" fill="#878787"/>
<rect x="24" y="56" width="2" height="2" fill="#878787"/>
<rect x="24" y="56" width="2" height="2" fill="#878787"/>
<rect x="24" y="56" width="2" height="2" fill="#878787"/>
<rect x="14" y="64" width="10" height="2" fill="#C1C1C1"/>
<rect x="14" y="64" width="10" height="2" fill="#C1C1C1"/>
<rect x="14" y="64" width="10" height="2" fill="#878787"/>
<rect x="14" y="64" width="10" height="2" fill="#878787"/>
<rect x="14" y="64" width="10" height="2" fill="#878787"/>
<rect x="14" y="64" width="10" height="2" fill="#878787"/>
</svg>
